<?xml version="1.0" encoding="utf-8"?>
<!-- Generator: Adobe Illustrator 22.1.0, SVG Export Plug-In . SVG Version: 6.00 Build 0)  -->
<svg version="1.1" id="Layer_1" xmlns="http://www.w3.org/2000/svg" xmlns:xlink="http://www.w3.org/1999/xlink" x="0px" y="0px"
	 viewBox="0 0 32 32" style="enable-background:new 0 0 32 32;" xml:space="preserve">
<style type="text/css">
	.st0{fill:#FFFFFF;stroke:#646766;stroke-miterlimit:10;}
	.st1{fill:#4F83B9;}
	.st2{fill:#FFFFFF;}
</style>
<path class="st0" d="M27.5,6.5h-22c-1.1,0-2,0.9-2,2v13c0,1.1,0.9,2,2,2h1.4l0.6,6l6-6h14c1.1,0,2-0.9,2-2v-13
	C29.5,7.4,28.6,6.5,27.5,6.5z"/>
<g>
	<polygon class="st1" points="10.5,8.5 2.5,8.5 2.5,5.5 10.5,5.5 10.5,1.8 15.7,7 10.5,12.2 	"/>
	<path class="st2" d="M11,3l4,4l-4,4V8H3V6h8V3 M10,0.6V3v2H3H2v1v2v1h1h7v2v2.4l1.7-1.7l4-4L16.4,7l-0.7-0.7l-4-4L10,0.6L10,0.6z"
		/>
</g>
</svg>
