<?xml version="1.0" encoding="utf-8"?>
<!-- Generator: Adobe Illustrator 22.1.0, SVG Export Plug-In . SVG Version: 6.00 Build 0)  -->
<svg version="1.1" id="Layer_1" xmlns="http://www.w3.org/2000/svg" xmlns:xlink="http://www.w3.org/1999/xlink" x="0px" y="0px"
	 viewBox="0 0 32 32" style="enable-background:new 0 0 32 32;" xml:space="preserve">
<style type="text/css">
	.st0{fill:#FFFFFF;stroke:#646766;stroke-miterlimit:10;}
	.st1{fill:#D86444;}
</style>
<path class="st0" d="M27.5,6.5h-22c-1.1,0-2,0.9-2,2v13c0,1.1,0.9,2,2,2h1.4l0.6,6l6-6h14c1.1,0,2-0.9,2-2v-13
	C29.5,7.4,28.6,6.5,27.5,6.5z"/>
<g>
	<path class="st1" d="M11.1,7.4L16,1.5h-1.1L9.5,5.8L6.8,2C6.3,1.4,5.2,1.5,4.6,2C4.1,2.5,4,3.5,4.6,4.2l3.2,3.2l-5.4,4.9
		c-0.6,0.6-0.5,1.6,0,2.2c0.5,0.5,1.6,0.6,2.2,0l4.9-5.4l6.9,6h0.5L11.1,7.4z"/>
</g>
</svg>
