<?xml version="1.0" encoding="utf-8"?>
<!-- Generator: Adobe Illustrator 22.1.0, SVG Export Plug-In . SVG Version: 6.00 Build 0)  -->
<svg version="1.1" id="Layer_1" xmlns="http://www.w3.org/2000/svg" xmlns:xlink="http://www.w3.org/1999/xlink" x="0px" y="0px"
	 viewBox="0 0 32 32" style="enable-background:new 0 0 32 32;" xml:space="preserve">
<style type="text/css">
	.st0{fill:#FFFFFF;stroke:#646766;stroke-miterlimit:10;}
	.st1{fill:#4F83B9;}
	.st2{fill:#FFFFFF;}
</style>
<path class="st0" d="M27.5,6.5h-22c-1.1,0-2,0.9-2,2v13c0,1.1,0.9,2,2,2h1.4l0.6,6l6-6h14c1.1,0,2-0.9,2-2v-13
	C29.5,7.4,28.6,6.5,27.5,6.5z"/>
<g>
	<polygon class="st1" points="7.9,5.5 15.9,5.5 15.9,8.5 7.9,8.5 7.9,12.2 2.7,7 7.9,1.8 	"/>
	<path class="st2" d="M7.4,11l-4-4l4-4v3h8v2h-8V11 M8.4,13.4V11V9h7h1V8V6V5h-1h-7V3V0.6L6.7,2.3l-4,4L2,7l0.7,0.7l4,4L8.4,13.4
		L8.4,13.4z"/>
</g>
</svg>
